<svg height="486pt" viewBox="0 -79 486.5 486" width="486pt" xmlns="http://www.w3.org/2000/svg"><path d="m12 212.917969h454.5v-42.03125c0-10.1875-6.4375-19.269531-16.050781-22.644531l-56.949219-19.988282-43.273438-83.089844c-4.132812-7.9375-12.339843-12.914062-21.285156-12.914062h-257.941406c-12.109375 0-23.03125 7.285156-27.679688 18.46875l-29.523437 71.007812c-1.515625 3.648438-2.296875 7.558594-2.296875 11.507813v79.734375c.167969-.011719.328125-.050781.5-.050781zm0 0" fill="#4671c6"/><path d="m321.425781 32.25h-9.925781c-1.328125 0-2.570312-.660156-3.316406-1.765625l-6.953125-10.238281-212.234375.003906v8c0 2.207031-1.789063 4-4 4h-8c-2.207032 0-4-1.792969-4-4v-8c0-8.820312 7.179687-16 16-16h212.238281c5.230469 0 10.140625 2.5625 13.128906 6.855469l10.34375 14.859375c.851563 1.222656.953125 2.816406.261719 4.136718-.6875 1.320313-2.054688 2.148438-3.542969 2.148438zm-240.429687-8v-4zm0 0" fill="#e0ebfc"/><path d="m321.425781 36.25h-9.925781c-2.660156 0-5.140625-1.316406-6.632812-3.527344l-5.753907-8.476562-206.117187.003906v4c0 4.410156-3.585938 8-8 8h-8c-4.410156 0-8-3.589844-8-8v-8c0-11.027344 8.972656-20 20-20h212.238281c6.539063 0 12.675781 3.203125 16.414063 8.570312l10.34375 14.859376c1.707031 2.453124 1.90625 5.621093.523437 8.273437s-4.101563 4.296875-7.089844 4.296875zm-232.429687-28c-6.617188 0-12 5.382812-12 12v8h8v-8c0-2.207031 1.792968-4 4-4l212.234375-.003906c1.324219 0 2.5625.65625 3.308593 1.753906l6.953126 10.238281 9.933593.011719-10.34375-14.855469c-2.242187-3.21875-5.925781-5.140625-9.847656-5.140625h-212.238281zm0 0" fill="#3762cc"/><path d="m11.5 160.230469h24c4.417969 0 8 3.582031 8 8v16c0 4.417969-3.582031 8-8 8h-24zm0 0" fill="#ffea92"/><path d="m452.351562 264.917969h-424.703124c-13.058594 0-23.648438-10.589844-23.648438-23.648438v-20.351562c0-4.417969 3.582031-8 8-8h456c4.417969 0 8 3.582031 8 8v20.351562c0 13.058594-10.589844 23.648438-23.648438 23.648438zm0 0" fill="#ffea92"/><path d="m476.304688 204.71875h-9.804688v-36h9.804688c3.421874 0 6.195312 2.773438 6.195312 6.195312v23.609376c0 3.421874-2.773438 6.195312-6.195312 6.195312zm0 0" fill="#ffea92"/><path d="m294 172.230469h-20c-2.210938 0-4-1.789063-4-4 0-2.210938 1.789062-4 4-4h20c2.210938 0 4 1.789062 4 4 0 2.207031-1.789062 4-4 4zm0 0" fill="#f9cfcf"/><path d="m174 172.230469h-20c-2.210938 0-4-1.789063-4-4 0-2.210938 1.789062-4 4-4h20c2.210938 0 4 1.789062 4 4 0 2.207031-1.789062 4-4 4zm0 0" fill="#f9cfcf"/><path d="m133.210938 52.25c0-2.210938-1.789063-4-4-4h-58.210938c-5.664062 0-10.726562 3.378906-12.902344 8.609375l-29.527344 71.003906c-.707031 1.710938-1.070312 3.519531-1.070312 5.371094v8.019531h101.710938c2.210937 0 4-1.792968 4-4zm0 0" fill="#e0ebfc"/><path d="m151.0625 141.253906h96.296875c2.128906 0 3.851563-1.792968 3.851563-4v-85.003906c0-2.210938-1.722657-4-3.851563-4h-96.296875c-2.125 0-3.851562 1.789062-3.851562 4v85.003906c0 2.207032 1.726562 4 3.851562 4zm0 0" fill="#e0ebfc"/><path d="m336.039062 52.558594c-1.386718-2.660156-4.105468-4.308594-7.097656-4.308594h-59.726562c-2.210938 0-4 1.789062-4 4v85.003906c0 2.207032 1.789062 4 4 4h106.425781c3 0 4.933594-3.1875 3.546875-5.851562zm0 0" fill="#e0ebfc"/><path d="m452.351562 264.917969h-424.703124c-13.058594 0-23.648438-10.589844-23.648438-23.648438v-20.351562c0-4.417969 3.582031-8 8-8h456c4.417969 0 8 3.582031 8 8v20.351562c0 13.058594-10.589844 23.648438-23.648438 23.648438zm0 0" fill="#6bdddd"/><g fill="#3762cc"><path d="m476.300781 208.71875h-9.800781c-2.207031 0-4-1.789062-4-4v-36c0-2.207031 1.792969-4 4-4h9.800781c5.625 0 10.199219 4.574219 10.199219 10.195312v23.609376c0 5.621093-4.574219 10.195312-10.199219 10.195312zm-5.800781-8h5.800781c1.210938 0 2.199219-.984375 2.199219-2.195312v-23.609376c0-1.207031-.984375-2.195312-2.199219-2.195312h-5.800781zm0 0"/><path d="m129.210938 145.253906h-101.710938c-2.207031 0-4-1.792968-4-4v-8.019531c0-2.378906.460938-4.703125 1.378906-6.90625l29.523438-71.003906c2.796875-6.726563 9.3125-11.074219 16.597656-11.074219h58.210938c4.414062 0 8 3.589844 8 8v85.003906c0 4.410156-3.585938 8-8 8zm-97.710938-8h97.710938v-85.007812l-58.210938.003906c-4.042969 0-7.65625 2.414062-9.210938 6.144531l-29.523437 71.003907c-.507813 1.222656-.765625 2.511718-.765625 3.835937zm0 0"/><path d="m247.363281 145.253906h-96.300781c-4.328125 0-7.851562-3.589844-7.851562-8v-85.003906c0-4.410156 3.523437-8 7.851562-8h96.296875c4.332031 0 7.851563 3.589844 7.851563 8v85.003906c0 4.410156-3.519532 8-7.847657 8zm-96.152343-8h96.148437l-.148437-85.003906h-96.148438l.148438 85.003906h-.148438zm0 0"/><path d="m375.636719 145.253906h-106.425781c-4.410157 0-8-3.589844-8-8v-85.003906c0-4.410156 3.589843-8 8-8h59.726562c4.492188 0 8.570312 2.472656 10.644531 6.457031l43.148438 82.847657c1.304687 2.5 1.210937 5.433593-.253907 7.84375-1.464843 2.410156-4.019531 3.855468-6.839843 3.855468zm-106.425781-93.003906v85.003906h106.425781l-43.148438-82.847656c-.691406-1.332031-2.050781-2.15625-3.546875-2.15625zm0 0"/><path d="m452.351562 268.917969h-424.703124c-15.246094 0-27.648438-12.402344-27.648438-27.648438v-20.351562c0-6.617188 5.382812-12 12-12h456c6.617188 0 12 5.382812 12 12v20.351562c0 15.246094-12.402344 27.648438-27.648438 27.648438zm-440.351562-52c-2.207031 0-4 1.792969-4 4v20.351562c0 10.835938 8.8125 19.648438 19.648438 19.648438h424.703124c10.835938 0 19.648438-8.8125 19.648438-19.648438v-20.351562c0-2.207031-1.792969-4-4-4zm0 0"/></g><path d="m162 272.773438c0 28.71875-23.28125 52-52 52s-52-23.28125-52-52 23.28125-52 52-52 52 23.28125 52 52zm0 0" fill="#f9a7a7"/><path d="m138 272.773438c0 15.460937-12.535156 28-28 28s-28-12.539063-28-28c0-15.464844 12.535156-28 28-28s28 12.535156 28 28zm0 0" fill="#ffea92"/><path d="m422 272.773438c0 28.71875-23.28125 52-52 52s-52-23.28125-52-52 23.28125-52 52-52 52 23.28125 52 52zm0 0" fill="#f9a7a7"/><path d="m398 272.773438c0 15.460937-12.535156 28-28 28s-28-12.539063-28-28c0-15.464844 12.535156-28 28-28s28 12.535156 28 28zm0 0" fill="#ffea92"/><path d="m110 328.773438c-30.878906 0-56-25.125-56-56 0-30.878907 25.121094-56 56-56s56 25.121093 56 56c0 30.875-25.121094 56-56 56zm0-104c-26.464844 0-48 21.53125-48 48 0 26.464843 21.535156 48 48 48s48-21.535157 48-48c0-26.46875-21.535156-48-48-48zm0 0" fill="#3762cc"/><path d="m370 328.773438c-30.878906 0-56-25.125-56-56 0-30.878907 25.121094-56 56-56s56 25.121093 56 56c0 30.875-25.121094 56-56 56zm0-104c-26.464844 0-48 21.53125-48 48 0 26.464843 21.535156 48 48 48s48-21.535157 48-48c0-26.46875-21.535156-48-48-48zm0 0" fill="#3762cc"/><path d="m110 304.773438c-17.644531 0-32-14.359376-32-32 0-17.644532 14.355469-32 32-32s32 14.355468 32 32c0 17.640624-14.355469 32-32 32zm0-56c-13.234375 0-24 10.765624-24 24 0 13.234374 10.765625 24 24 24s24-10.765626 24-24c0-13.234376-10.765625-24-24-24zm0 0" fill="#3762cc"/><path d="m370 304.773438c-17.644531 0-32-14.359376-32-32 0-17.644532 14.355469-32 32-32s32 14.355468 32 32c0 17.640624-14.355469 32-32 32zm0-56c-13.234375 0-24 10.765624-24 24 0 13.234374 10.765625 24 24 24s24-10.765626 24-24c0-13.234376-10.765625-24-24-24zm0 0" fill="#3762cc"/><path d="m11.5 216.96875c-1.015625 0-1.992188-.382812-2.734375-1.085938-.808594-.753906-1.265625-1.8125-1.265625-2.914062v-79.734375c0-4.5.875-8.886719 2.605469-13.042969l29.523437-71.007812c5.289063-12.714844 17.601563-20.933594 31.375-20.933594h257.9375c10.476563 0 19.992188 5.773438 24.835938 15.066406l42.539062 81.683594 55.460938 19.464844c11.199218 3.933594 18.726562 14.550781 18.726562 26.421875v42.027343c0 2.210938-1.792968 4-4 4h-454.328125c-.148437.023438-.285156.035157-.417969.042969-.085937.007813-.171874.011719-.257812.011719zm4-8.050781h447v-38.03125c0-8.476563-5.375-16.0625-13.375-18.871094l-56.949219-19.992187c-.960937-.335938-1.753906-1.027344-2.222656-1.925782l-43.273437-83.085937c-3.457032-6.636719-10.257813-10.761719-17.738282-10.761719h-257.941406c-10.527344 0-19.945312 6.28125-23.984375 16.003906l-29.527344 71.007813c-1.316406 3.175781-1.988281 6.53125-1.988281 9.96875zm0 0" fill="#3762cc"/></svg>