<svg id="Capa_1" enable-background="new 0 0 511.43 511.43" height="512" viewBox="0 0 511.43 511.43" width="512" xmlns="http://www.w3.org/2000/svg"><path d="m63.005 110.886h30v29.885h-30z" transform="matrix(.707 -.707 .707 .707 -66.127 92.013)"/><path d="m418.436 110.78h29.884v30h-29.884z" transform="matrix(.707 -.707 .707 .707 37.989 343.275)"/><path d="m300.262 0h-89.094v30h29.547v29.867h30v-29.867h29.547z"/><path d="m255.715 95.55c-113.268 0-205.089 93.098-205.089 207.94s91.822 207.94 205.089 207.94c113.268 0 205.089-93.098 205.089-207.94s-91.821-207.94-205.089-207.94zm107.642 79.048 21.213 21.213-29.333 29.333-21.213-21.213zm-122.668-38.362h30v41.482h-30zm-92.653 38.4 29.332 29.333-21.213 21.213-29.332-29.333zm-59.576 143.881v-30h41.483v30zm59.613 113.866-21.213-21.213 29.333-29.333 21.213 21.213zm122.668 38.362h-30v-41.482h30zm-15.026-136.669c-16.892 0-30.586-13.694-30.586-30.586s13.694-30.586 30.586-30.586c11.443 0 21.412 6.288 26.657 15.594l68.533.019-.008 30-68.533-.019c-5.248 9.297-15.212 15.578-26.649 15.578zm107.679 98.269-29.332-29.333 21.213-21.213 29.332 29.333zm18.093-113.881v-30h41.483v30z"/></svg>